<?xml version="1.0" encoding="UTF-8"?><svg id="a" xmlns="http://www.w3.org/2000/svg" viewBox="0 0 192.41 361.18"><defs><style>.b{fill:none;stroke:#2b272a;stroke-miterlimit:10;stroke-width:8px;}</style></defs><path class="b" d="M186.98,247.93s-3.17-20.44-14.48-44.16c-6.66-13.97-8.33-13.06-13.7-25.61-1.31-3.07-2.28-5.62-3.07-7.99-4.9-14.62-7.74-27.48-7.74-27.48-6.28-29.43-9.43-44.14-18.28-53.41-4.92-5.15-14.47-12.13-33.51-13.59-19.05,1.46-28.6,8.44-33.51,13.59-8.85,9.27-11.99,23.98-18.28,53.41,0,0-2.83,12.86-7.74,27.48-.8,2.38-1.76,4.93-3.07,7.99-5.37,12.56-7.04,11.64-13.7,25.61-11.31,23.73-14.48,44.16-14.48,44.16-.41,2.77-3,20.78,0,36.21,6.17,31.8,39.74,71.79,88.43,73.01,.78,.02,1.56,.03,2.34,.03,.78,0,1.56,0,2.34-.03,48.69-1.21,82.26-41.2,88.43-73.01,3-15.43,.41-33.44,0-36.21Z"/><path class="b" d="M80.15,79.91c-11.51-35.69-4.84-69.73,14.92-76.1"/><path class="b" d="M116.46,206.57c-9.9-10.25-16.72-12.65-20.26-13.18-3.53,.54-10.35,2.94-20.26,13.18-9.41,9.73-25.9,26.8-25.53,51.31,.41,26.73,20.86,59.51,45.78,59.48,24.93,.02,45.37-32.75,45.78-59.48,.38-24.51-16.12-41.58-25.53-51.31Z"/><path class="b" d="M54.91,31.66c-3.71-.82-11.84-2.62-19.94-.74-16.42,3.82-31.26,22.46-28.98,31.96,1.58,2.89,5.16,3.74,10.08,4.83,3.71,.82,11.84,2.62,19.94,.74,16.42-3.82,31.26-22.46,28.98-31.96-1.58-2.89-5.16-3.74-10.08-4.83Z"/><line class="b" x1="64.99" y1="36.49" x2="74.51" y2="32.6"/></svg>